<svg width="800" height="600" xmlns="http://www.w3.org/2000/svg">
 <g id="Layer_1">
  <title>Layer 1</title>
  <g id="svg_30">
   <text font-style="normal" font-weight="normal" transform="matrix(2.59755 0 0 2.65452 -373.828 -307.664)" stroke="#000" xml:space="preserve" text-anchor="start" font-family="sans-serif" font-size="24" id="svg_1" y="216.83372" x="278.04919" stroke-width="0" fill="#000000">TB</text>
   <line stroke-width="8" id="svg_6" y2="307.2" x2="324.72269" y1="188.2" x1="324.72269" stroke="#000" fill="none"/>
   <line stroke-width="8" stroke="#000" id="svg_7" y2="307.2" x2="450.21008" y1="188.2" x1="450.21008" fill="none"/>
   <line stroke-width="8" id="svg_8" y2="190.42012" x2="349.57978" y1="190.84029" x1="320.58819" stroke="#000" fill="none"/>
   <line stroke-width="8" id="svg_10" y2="304.28566" x2="349.57978" y1="304.70583" x1="320.58819" stroke="#000" fill="none"/>
   <line stroke-width="8" id="svg_11" y2="190.84029" x2="454.20163" y1="191.26046" x1="425.21003" stroke="#000" fill="none"/>
   <line stroke-width="8" id="svg_13" y2="304.28566" x2="454.20163" y1="304.70583" x1="425.21003" stroke="#000" fill="none"/>
   <line id="svg_14" y2="248.90498" x2="564.09173" y1="248.90498" x1="454.0077" stroke-width="8" stroke="#000" fill="none"/>
   <line id="svg_16" y2="280.75625" x2="510.92431" y1="280.75625" x1="454.20163" stroke-width="8" stroke="#000" fill="none"/>
   <line id="svg_17" y2="215.04845" x2="510.50414" y1="215.04845" x1="453.78146" stroke-width="8" stroke="#000" fill="none"/>
   <line id="svg_18" y2="247.77376" x2="320.87924" y1="247.77376" x1="210.79521" stroke-width="8" stroke="#000" fill="none"/>
   <line id="svg_19" y2="215.04845" x2="320.90872" y1="215.04845" x1="264.18604" stroke-width="8" stroke="#000" fill="none"/>
   <line id="svg_20" y2="280.75625" x2="320.8764" y1="280.75625" x1="264.15371" stroke-width="8" stroke="#000" fill="none"/>
   <text transform="matrix(1.13468 0 0 1.38044 -48.8312 -118.102)" stroke="#000" font-style="normal" font-weight="normal" xml:space="preserve" text-anchor="start" font-family="serif" font-size="24" id="svg_27" y="334.8698" x="299.8968" fill="none">TECHNOPHILE</text>
   <text transform="matrix(1.13468 0 0 1.38044 -48.8312 -118.102)" stroke="#000" font-style="normal" font-weight="normal" xml:space="preserve" text-anchor="start" font-family="serif" font-size="24" id="svg_29" y="357.81513" x="357.32206" fill="none">BUD</text>
  </g>
 </g>
</svg>